<svg xmlns="http://www.w3.org/2000/svg">

<!-- <<<LINK>>> -->
<symbol id="link" viewBox="0 0 40 40" >
<path d="M26.2134 6.47334C28.6034 4.07334 32.1001 4.02334 34.0367 5.96667C35.9767 7.91334 35.9234 11.4333 33.5317 13.8333L29.4917 17.8883C29.2577 18.1233 29.1265 18.4416 29.1272 18.7732C29.1278 19.1048 29.2601 19.4226 29.4951 19.6567C29.73 19.8907 30.0483 20.0219 30.3799 20.0212C30.7115 20.0206 31.0293 19.8883 31.2634 19.6533L35.3034 15.5983C38.4867 12.4 38.8867 7.29501 35.8084 4.20167C32.7251 1.10667 27.6301 1.51001 24.4417 4.70834L16.3634 12.82C13.1767 16.0183 12.7767 21.1233 15.8584 24.215C15.9726 24.338 16.1104 24.4368 16.2636 24.5054C16.4168 24.574 16.5823 24.611 16.7501 24.6143C16.9179 24.6176 17.0847 24.587 17.2404 24.5244C17.3962 24.4619 17.5378 24.3686 17.6567 24.2501C17.7756 24.1316 17.8694 23.9904 17.9326 23.8349C17.9958 23.6794 18.027 23.5127 18.0243 23.3449C18.0217 23.177 17.9853 23.0114 17.9172 22.858C17.8492 22.7045 17.751 22.5663 17.6284 22.4517C15.6901 20.505 15.7417 16.985 18.1334 14.585L26.2134 6.47334Z"/>
<path d="M24.1417 15.7833C23.9074 15.5484 23.5894 15.4162 23.2576 15.4157C22.9258 15.4152 22.6075 15.5466 22.3725 15.7808C22.1376 16.0151 22.0053 16.3331 22.0049 16.6649C22.0044 16.9967 22.1357 17.3151 22.37 17.55C24.31 19.4967 24.2567 23.015 21.865 25.4167L13.7834 33.5267C11.3934 35.9267 7.89668 35.9767 5.96002 34.0333C4.02169 32.0867 4.07335 28.5667 6.46502 26.1667L10.505 22.1117C10.6242 21.9962 10.7193 21.8581 10.7845 21.7055C10.8498 21.5529 10.8841 21.3889 10.8853 21.2229C10.8865 21.0569 10.8546 20.8924 10.7915 20.7389C10.7285 20.5853 10.6355 20.4459 10.5179 20.3287C10.4004 20.2115 10.2607 20.1189 10.107 20.0563C9.95332 19.9936 9.78868 19.9622 9.62271 19.9639C9.45675 19.9656 9.29278 20.0003 9.14037 20.066C8.98796 20.1317 8.85016 20.2271 8.73502 20.3467L4.69502 24.4017C1.51002 27.6 1.11002 32.705 4.19169 35.8C7.27502 38.8967 12.37 38.4917 15.5567 35.2933L23.6367 27.1817C26.82 23.985 27.22 18.8783 24.1417 15.7867V15.7833Z" />
</symbol>

<!-- <<<FULLSCREEN>>> -->

<symbol id="fullscreen" viewBox="0 0 40 40" >
<path d="M11.3281 9.23437L13.043 7.51953C13.0843 7.47802 13.1131 7.42575 13.1262 7.36867C13.1392 7.31159 13.136 7.25198 13.1169 7.19663C13.0978 7.14128 13.0635 7.09241 13.018 7.05558C12.9724 7.01875 12.9175 6.99543 12.8594 6.98828L6.60155 6.25C6.40234 6.22656 6.23046 6.39453 6.2539 6.59766L6.99218 12.8555C7.02343 13.1133 7.33984 13.2227 7.52343 13.0391L9.23046 11.332L14.4531 16.5508C14.5742 16.6719 14.7734 16.6719 14.8945 16.5508L16.5508 14.8984C16.6719 14.7773 16.6719 14.5781 16.5508 14.457L11.3281 9.23437ZM25.1055 16.5508C25.2266 16.6719 25.4258 16.6719 25.5469 16.5508L30.7695 11.332L32.4766 13.0391C32.5181 13.0804 32.5703 13.1092 32.6274 13.1223C32.6845 13.1353 32.7441 13.1321 32.7995 13.113C32.8548 13.0939 32.9037 13.0596 32.9405 13.0141C32.9773 12.9685 33.0007 12.9136 33.0078 12.8555L33.7461 6.60156C33.7695 6.40234 33.6016 6.23047 33.3984 6.25391L27.1406 6.99219C26.8828 7.02344 26.7734 7.33984 26.957 7.52344L28.6719 9.23828L23.4492 14.4531C23.3911 14.5119 23.3584 14.5912 23.3584 14.6738C23.3584 14.7565 23.3911 14.8358 23.4492 14.8945L25.1055 16.5508ZM33.0078 27.1445C32.9766 26.8867 32.6601 26.7773 32.4766 26.9609L30.7695 28.668L25.5469 23.4492C25.4881 23.3911 25.4088 23.3584 25.3262 23.3584C25.2435 23.3584 25.1642 23.3911 25.1055 23.4492L23.4492 25.1016C23.3911 25.1603 23.3584 25.2396 23.3584 25.3223C23.3584 25.4049 23.3911 25.4842 23.4492 25.543L28.6719 30.7656L26.957 32.4805C26.9157 32.522 26.8869 32.5742 26.8738 32.6313C26.8607 32.6884 26.864 32.748 26.8831 32.8034C26.9022 32.8587 26.9365 32.9076 26.982 32.9444C27.0275 32.9813 27.0825 33.0046 27.1406 33.0117L33.3984 33.75C33.5976 33.7734 33.7695 33.6055 33.7461 33.4023L33.0078 27.1445ZM14.8945 23.4492C14.8358 23.3911 14.7565 23.3584 14.6738 23.3584C14.5912 23.3584 14.5119 23.3911 14.4531 23.4492L9.23046 28.668L7.52343 26.9609C7.48192 26.9196 7.42965 26.8908 7.37257 26.8777C7.31548 26.8647 7.25588 26.8679 7.20053 26.887C7.14518 26.9061 7.09631 26.9404 7.05948 26.9859C7.02265 27.0315 6.99933 27.0864 6.99218 27.1445L6.2539 33.3984C6.23046 33.5977 6.39843 33.7695 6.60155 33.7461L12.8594 33.0078C13.1172 32.9766 13.2266 32.6602 13.043 32.4766L11.3281 30.7656L16.5508 25.5469C16.6719 25.4258 16.6719 25.2266 16.5508 25.1055L14.8945 23.4492Z"/>

</symbol>







<symbol id="arrowDown" viewBox="0 0 16 10" >
<path d="M6.58579 8.58579L1.41421 3.41421C0.154284 2.15428 1.04662 0 2.82843 0H13.1716C14.9534 0 15.8457 2.15428 14.5858 3.41421L9.41421 8.58579C8.63317 9.36684 7.36684 9.36684 6.58579 8.58579Z"/>
</symbol>

<symbol id="vk" viewBox="0 0 15 15" >
<path d="M11.2066 7.85184L11.2067 7.85178L11.2003 7.84492C10.2256 6.7907 9.68314 6.50114 9.20304 6.50114C9.01541 6.50114 8.67207 6.5208 8.45203 6.82854C8.35753 6.96069 8.31698 7.1064 8.29646 7.22901C8.2757 7.35303 8.26977 7.49013 8.26977 7.63192V9.28925C8.26977 9.36032 8.26529 9.39953 8.26132 9.42007C8.24201 9.42956 8.20043 9.44612 8.12264 9.46159C8.01091 9.48382 7.84863 9.49918 7.61548 9.49997C6.69896 9.42755 5.80669 9.11333 5.01125 8.57812C4.20997 8.039 3.52881 7.29017 3.02802 6.38913L3.01415 6.36418L2.99753 6.34096C1.77943 4.63964 0.925302 2.6422 0.504658 0.503537C0.520157 0.5021 0.539378 0.501096 0.56282 0.501096H2.20378C2.26884 0.501096 2.29707 0.509394 2.30475 0.512157C2.30512 0.512289 2.30545 0.512403 2.30575 0.512506C2.30814 0.513333 2.30854 0.51347 2.31244 0.517451C2.32048 0.525654 2.34048 0.549558 2.36966 0.607949C2.39847 0.665603 2.42979 0.743574 2.4669 0.852124C2.87515 2.19816 3.42716 3.45895 3.95338 4.39155C4.21607 4.85709 4.48045 5.25536 4.72638 5.54445C4.84863 5.68814 4.97803 5.81883 5.11171 5.91771C5.23331 6.00766 5.42187 6.11922 5.65123 6.11922C5.73875 6.11922 5.87295 6.10971 6.01061 6.04125C6.16165 5.96613 6.26542 5.84649 6.3308 5.71402C6.4383 5.49622 6.45495 5.21035 6.45495 4.9222V2.21168V2.19757L6.45416 2.18349C6.41397 1.47161 6.21925 1.05244 6.01951 0.747631C5.97805 0.684372 5.9372 0.627279 5.90476 0.581937C5.90163 0.577567 5.89858 0.573305 5.89562 0.569158C5.87606 0.541787 5.86055 0.519855 5.84776 0.501096H8.26122C8.26631 0.542156 8.26977 0.597625 8.26977 0.671458V4.33019C8.26977 4.58418 8.31731 4.8177 8.4342 5.00544C8.55242 5.19535 8.76024 5.35598 9.02743 5.35598C9.26473 5.35598 9.46121 5.27264 9.64311 5.1357C9.80309 5.01527 9.9705 4.83877 10.1626 4.6236L10.1789 4.60535L10.1933 4.5856C11.0526 3.40956 11.7535 2.10096 12.2748 0.701415L12.2791 0.689915L12.2828 0.678219C12.3049 0.608759 12.3432 0.560232 12.3809 0.532493C12.4174 0.50573 12.4525 0.498089 12.4821 0.500394L12.5015 0.501903H12.5209H14.1626C14.1693 0.501903 14.1756 0.501985 14.1816 0.502135C14.1805 0.507311 14.1793 0.512678 14.1781 0.518238C13.5953 1.9773 12.8761 3.36169 12.0329 4.64812L12.0259 4.65882L12.0195 4.66987C12.0172 4.67384 12.0148 4.67788 12.0124 4.68199C11.9334 4.81685 11.8112 5.02557 11.7932 5.27425C11.7728 5.55551 11.884 5.79512 12.031 6.0095C12.1439 6.19342 12.3539 6.42387 12.5367 6.62458C12.5445 6.63315 12.5522 6.64166 12.5599 6.65011L12.5681 6.65908C12.7823 6.89436 13.0024 7.13617 13.1767 7.36747L13.1893 7.38413L13.2032 7.39968C13.7213 7.97962 14.1546 8.65082 14.4855 9.38811C14.4963 9.43444 14.4996 9.46782 14.5 9.48992C14.4784 9.49467 14.4451 9.49919 14.3973 9.49919H12.7549C12.6853 9.49919 12.6458 9.48604 12.604 9.4613C12.5488 9.42855 12.4733 9.3649 12.3528 9.229C12.2559 9.11962 12.15 8.98739 12.014 8.81748C11.9799 8.77484 11.9439 8.72982 11.9056 8.68219C11.7194 8.45045 11.493 8.1734 11.2066 7.85184ZM5.72104 0.402391L5.74223 0.423505L5.72104 0.402391Z"/>

</symbol>

<symbol id="telegram" viewBox="0 0 15 15" >
<path d="M16 1L1 6L6.52632 6.66667M16 1L14.0263 11L6.52632 6.66667M16 1L6.52632 6.66667M6.52632 6.66667V10.3333L9.09132 8.14867"/>

</symbol>

<symbol id="whatsapp" viewBox="0 0 15 15" >
<path d="M12.8141 2.18254C12.123 1.48798 11.2999 0.937293 10.3927 0.562581C9.4855 0.18787 8.5124 -0.00336008 7.53015 4.46771e-05C3.41457 4.46771e-05 0.0603016 3.33753 0.0603016 7.43252C0.0603016 8.74502 0.407035 10.02 1.05528 11.145L0 15L3.95729 13.965C5.05025 14.5575 6.27889 14.8725 7.53015 14.8725C11.6457 14.8725 15 11.535 15 7.44002C15 5.45253 14.2236 3.58503 12.8141 2.18254ZM7.53015 13.6125C6.41457 13.6125 5.32161 13.3125 4.36432 12.75L4.13819 12.615L1.78643 13.23L2.41206 10.95L2.26131 10.7175C1.64152 9.73274 1.31242 8.59445 1.31156 7.43252C1.31156 4.02753 4.1005 1.25254 7.52261 1.25254C9.1809 1.25254 10.7412 1.89754 11.9095 3.06754C12.4881 3.64051 12.9465 4.32203 13.2583 5.0726C13.5702 5.82317 13.7292 6.62786 13.7261 7.44002C13.7412 10.845 10.9523 13.6125 7.53015 13.6125ZM10.9372 8.99252C10.7487 8.90252 9.82914 8.45252 9.66332 8.38502C9.48995 8.32502 9.36935 8.29502 9.24121 8.47502C9.11306 8.66252 8.75879 9.08252 8.65327 9.20252C8.54774 9.33002 8.43467 9.34502 8.24623 9.24752C8.05779 9.15752 7.45477 8.95502 6.74623 8.32502C6.18844 7.83002 5.8191 7.22252 5.70603 7.03502C5.6005 6.84752 5.69095 6.75002 5.78894 6.65252C5.87186 6.57002 5.97739 6.43503 6.06784 6.33003C6.15829 6.22503 6.19598 6.14253 6.25628 6.02253C6.31658 5.89503 6.28643 5.79003 6.24121 5.70003C6.19598 5.61003 5.81909 4.69503 5.66834 4.32003C5.51759 3.96003 5.3593 4.00503 5.24623 3.99753H4.88442C4.75628 3.99753 4.5603 4.04253 4.38693 4.23003C4.22111 4.41753 3.73869 4.86753 3.73869 5.78253C3.73869 6.69753 4.40955 7.58252 4.5 7.70252C4.59045 7.83002 5.8191 9.70502 7.68844 10.5075C8.13317 10.7025 8.4799 10.815 8.75126 10.8975C9.19598 11.04 9.60301 11.0175 9.92714 10.9725C10.2889 10.92 11.0352 10.5225 11.1859 10.0875C11.3442 9.65252 11.3442 9.28502 11.2915 9.20252C11.2387 9.12002 11.1256 9.08252 10.9372 8.99252Z"/>

</symbol>

<symbol id="viber" viewBox="0 0 77 78" >
<path d="M65.979 7.48757C64.0719 5.73064 56.3535 0.129486 39.1446 0.0544034C39.1446 0.0544034 18.8573 -1.16193 8.97644 7.90803C3.4804 13.4041 1.54328 21.4679 1.33305 31.4539C1.12282 41.4398 0.867535 60.1504 18.9023 65.226H18.9174L18.9023 72.9745C18.9023 72.9745 18.7822 76.1129 20.8545 76.7436C23.3472 77.5245 24.8188 75.1368 27.2065 72.569C28.5129 71.1575 30.3149 69.0852 31.6814 67.5085C44.0249 68.5446 53.5003 66.172 54.5815 65.8266C57.0743 65.0157 71.1747 63.2138 73.4572 44.5032C75.8298 25.192 72.316 12.9986 65.979 7.48757ZM68.0663 43.0917C66.1292 58.7088 54.7016 59.6999 52.5993 60.3756C51.6983 60.6609 43.3642 62.7332 32.8977 62.0575C32.8977 62.0575 25.0891 71.4728 22.6565 73.9205C21.8606 74.7164 20.9896 74.6413 21.0046 73.0646C21.0046 72.0284 21.0647 60.1954 21.0647 60.1954C21.0497 60.1954 21.0497 60.1954 21.0647 60.1954C5.77793 55.9608 6.67892 40.0283 6.8441 31.6941C7.00928 23.36 8.58601 16.5275 13.2411 11.9324C21.6053 4.34912 38.8292 5.47536 38.8292 5.47536C53.3802 5.53542 60.3478 9.92024 61.9696 11.3919C67.3305 15.9869 70.0635 26.979 68.0663 43.0917ZM47.1934 30.9583C47.2535 32.2498 45.3163 32.3399 45.2563 31.0484C45.0911 27.7448 43.5444 26.138 40.3609 25.9578C39.0695 25.8828 39.1896 23.9456 40.466 24.0207C44.6556 24.246 46.9832 26.6486 47.1934 30.9583ZM50.2418 32.6552C50.3919 26.2882 46.4125 21.3027 38.8592 20.7471C37.5828 20.657 37.718 18.7199 38.9944 18.81C47.704 19.4407 52.3441 25.4323 52.1789 32.7003C52.1639 33.9917 50.2117 33.9316 50.2418 32.6552ZM57.2995 34.6674C57.3145 35.9588 55.3624 35.9738 55.3624 34.6824C55.2723 22.444 47.1183 15.7767 37.2225 15.7016C35.9461 15.6866 35.9461 13.7645 37.2225 13.7645C48.2896 13.8395 57.1944 21.4829 57.2995 34.6674ZM55.6026 49.3986V49.4286C53.9809 52.2817 50.9475 55.4352 47.8241 54.4291L47.7941 54.3841C44.6256 53.4981 37.1624 49.6539 32.4472 45.8997C30.0145 43.9776 27.7921 41.7101 26.0802 39.5327C24.5335 37.5956 22.9718 35.2981 21.4551 32.5351C18.2566 26.7537 17.5509 24.1709 17.5509 24.1709C16.5447 21.0475 19.6832 18.0141 22.5513 16.3923H22.5814C23.9629 15.6716 25.2843 15.9118 26.1703 16.978C26.1703 16.978 28.0324 19.2004 28.8282 20.2966C29.5791 21.3178 30.5852 22.9545 31.1107 23.8706C32.0267 25.5074 31.4561 27.1742 30.5551 27.8649L28.7532 29.3065C27.8371 30.0423 27.9573 31.4088 27.9573 31.4088C27.9573 31.4088 30.6302 41.5149 40.6162 44.0677C40.6162 44.0677 41.9827 44.1879 42.7185 43.2719L44.1601 41.4699C44.8508 40.5689 46.5177 39.9983 48.1545 40.9143C50.3619 42.1606 53.17 44.0978 55.032 45.8547C56.0832 46.7106 56.3234 48.0171 55.6026 49.3986Z"/>
</symbol>

<!-- <<<TARGET>>> -->
<symbol id="target" viewBox="0 0 85 85" >
<path d="M68.7156 2.5501L68.7151 2.54808C68.6281 2.19768 68.4494 1.87655 68.1973 1.6176C67.9452 1.35863 67.6286 1.17114 67.28 1.07441C66.9313 0.977681 66.5632 0.975215 66.2133 1.06727C65.8633 1.15932 65.5443 1.34256 65.2887 1.59813L65.2884 1.59845L53.1224 13.7528L68.7156 2.5501ZM68.7156 2.5501L71.3193 12.9427L71.4652 13.525L72.0476 13.6701L82.4442 16.2591L82.4469 16.2598C82.7989 16.3464 83.1213 16.5251 83.3812 16.7773C83.6411 17.0294 83.829 17.3461 83.9258 17.6946C84.0226 18.0432 84.0247 18.4112 83.9321 18.7608C83.8394 19.1105 83.6553 19.4293 83.3984 19.6846L83.3965 19.6865L71.2304 31.8409C70.9809 32.0896 70.6711 32.2697 70.331 32.3634C69.991 32.4571 69.6324 32.4612 69.2903 32.3753L69.2893 32.3751L60.511 30.1811L59.9312 30.0362L59.529 30.4781C59.5092 30.4999 59.4891 30.5214 59.4688 30.5427L44.9325 45.0469C44.2587 45.6685 43.3704 46.0068 42.4525 45.9906C41.5293 45.9743 40.6486 45.6007 39.9959 44.9486C39.3433 44.2966 38.9697 43.4172 38.9534 42.4957C38.9372 41.5797 39.2754 40.6928 39.8974 40.0197L54.4295 25.5015L54.4296 25.5016L54.4391 25.4918C54.4608 25.4696 54.4827 25.4477 54.505 25.426L54.9175 25.025L54.7782 24.4669L52.5882 15.6909L52.5877 15.6891M68.7156 2.5501L52.5877 15.6891M52.5877 15.6891C52.5019 15.3478 52.506 14.9901 52.5997 14.6508C52.6932 14.3118 52.873 14.0027 53.1216 13.7536L52.5877 15.6891ZM42.4664 7.26659C43.0861 6.55497 43.3975 5.62685 43.3324 4.68623C43.2666 3.7438 42.8285 2.86186 42.1172 2.24364C41.4047 1.62436 40.475 1.31293 39.5325 1.37809L42.4664 7.26659ZM42.4664 7.26659C41.8467 7.97826 40.9692 8.41517 40.0269 8.48099M42.4664 7.26659L40.0269 8.48099M40.0269 8.48099C33.4801 8.93426 27.2012 11.2556 21.936 15.1694C16.6709 19.0832 12.641 24.4249 10.3252 30.5598C8.0094 36.6948 7.50519 43.365 8.8725 49.7778C10.2398 56.1907 13.4211 62.0765 18.0383 66.7359C22.6554 71.3953 28.5143 74.6324 34.9187 76.0628C41.3231 77.4932 48.0039 77.0567 54.1673 74.8051C60.3307 72.5536 65.7177 68.5817 69.6881 63.3611C73.6585 58.1406 76.0454 51.891 76.5651 45.3549C76.64 44.4139 77.0861 43.5409 77.8054 42.9281C78.5248 42.3153 79.4586 42.013 80.4014 42.0879C81.3441 42.1629 82.2182 42.6088 82.8315 43.3275C83.4448 44.046 83.7471 44.9784 83.6722 45.9193C83.0436 53.8128 80.1602 61.3602 75.3643 67.6648C70.5685 73.9694 64.0618 78.7662 56.6172 81.4853C49.1726 84.2043 41.1032 84.7312 33.3676 83.0034C25.6321 81.2755 18.5557 77.3656 12.9792 71.7382C7.40271 66.1108 3.56046 59.0025 1.90883 51.2579C0.257197 43.5134 0.865565 35.4579 3.66169 28.0486C6.45781 20.6392 11.3242 14.1873 17.6828 9.45952C24.0414 4.73177 31.6249 1.92684 39.5323 1.3781L40.0269 8.48099ZM37.2924 29.6425L37.2917 29.6428C35.142 30.4852 33.2362 31.8496 31.7466 33.6127C30.2571 35.3758 29.2307 37.482 28.7604 39.741C28.2901 42.0001 28.3907 44.3406 29.0531 46.551C29.7155 48.7614 30.9188 50.7719 32.5542 52.4009C34.1895 54.0299 36.2053 55.2261 38.4193 55.8813C40.6334 56.5365 42.9759 56.6301 45.2353 56.1538C47.4946 55.6775 49.5996 54.6461 51.36 53.1529C53.1203 51.6598 54.4806 49.7518 55.3177 47.6015C55.4873 47.1661 55.7411 46.7682 56.0647 46.4307C56.3882 46.0931 56.7752 45.8225 57.2036 45.6343C57.632 45.4461 58.0933 45.3441 58.5612 45.334C59.0291 45.3239 59.4944 45.4059 59.9305 45.5755C60.3666 45.745 60.765 45.9987 61.1028 46.322C61.4407 46.6452 61.7115 47.0318 61.8998 47.4595C62.088 47.8872 62.1901 48.3477 62.2002 48.8148C62.2103 49.2819 62.1282 49.7464 61.9586 50.1818L61.9586 50.1819C60.6922 53.4345 58.6342 56.3206 55.9708 58.5792C53.3073 60.8379 50.1224 62.3978 46.7037 63.1179C43.2851 63.838 39.7408 63.6955 36.3911 62.7034C33.0415 61.7113 29.9922 59.9008 27.519 57.4358C25.0458 54.9707 23.2266 51.9288 22.2258 48.5851C21.225 45.2414 21.0741 41.7013 21.7868 38.2847C22.4995 34.8682 24.0532 31.6828 26.3077 29.0167C28.5621 26.3507 31.446 24.2879 34.6988 23.0149C35.5783 22.6722 36.558 22.692 37.4228 23.0702C38.2877 23.4484 38.9667 24.1539 39.311 25.0315C39.4816 25.4666 39.5647 25.931 39.5557 26.3982C39.5466 26.8653 39.4455 27.3261 39.2581 27.7543C39.0707 28.1825 38.8007 28.5696 38.4634 28.8936C38.1261 29.2176 37.7282 29.4721 37.2924 29.6425Z" />
</symbol>


<!-- <<<CHECKMARK>>> -->
<symbol id="checkMark" viewBox="0 0 100 85" >
<path d="M97.037 3.26148L97.0371 3.26161C98.2797 4.74129 99 6.77986 99 8.93437C99 11.0889 98.2797 13.1275 97.0371 14.6071L40.7916 81.5651L40.7915 81.5652C40.1312 82.3514 39.3568 82.9639 38.5179 83.3776C37.68 83.7908 36.7899 84 35.8967 84C35.0035 84 34.1134 83.7908 33.2755 83.3776C32.4366 82.9639 31.6622 82.3514 31.0019 81.5652L31.0018 81.565L3.05655 48.3034L3.05106 48.2968L3.04545 48.2904C2.41465 47.5651 1.9038 46.6884 1.54987 45.7075C1.19595 44.7267 1.00811 43.667 1.00026 42.5913C0.992405 41.5157 1.16475 40.4519 1.50451 39.4633C1.84429 38.4746 2.3427 37.5866 2.9636 36.8474C3.58425 36.1085 4.3126 35.5357 5.10042 35.152C5.88735 34.7687 6.72244 34.5793 7.55895 34.588C8.3955 34.5966 9.22834 34.8033 10.0106 35.2033C10.7937 35.6038 11.5146 36.1924 12.1251 36.945L12.1305 36.9516L12.136 36.9581L35.1285 64.3298L35.8942 65.2414L36.6599 64.3297L87.9529 3.26169L87.953 3.26148C88.5669 2.53021 89.2864 1.96131 90.0646 1.57736C90.8421 1.19384 91.6673 1 92.495 1C93.3227 1 94.148 1.19384 94.9254 1.57736C95.7037 1.96131 96.4231 2.5302 97.037 3.26148Z"/>
</symbol>


<!-- <<<QUESTIONMARK>>> -->
<symbol id="questionMark" viewBox="0 0 60 85">
<path d="M38.7059 50.113L38.7045 50.1139C37.1498 51.03 36.1667 52.6282 36.1667 54.3772V54.6429C36.1667 57.682 33.4564 60.2143 30 60.2143C26.5436 60.2143 23.8333 57.682 23.8333 54.6429V54.3583C23.8335 51.6562 24.5785 48.9947 26.0037 46.6173C27.429 44.2396 29.4903 42.2207 32.0026 40.7496L40.7933 35.6084L40.5417 35.1763L40.7941 35.6079L40.794 35.608C44.7472 33.3059 47.1667 29.2968 47.1667 24.9688V24.2857C47.1667 17.269 40.9186 11.6429 33.3333 11.6429H26.6667C19.0814 11.6429 12.8333 17.269 12.8333 24.2857C12.8333 27.3249 10.1231 29.8571 6.66667 29.8571C3.21027 29.8571 0.5 27.3249 0.5 24.2857C0.5 11.1908 12.1686 0.5 26.6667 0.5H33.3333C47.8314 0.5 59.5 11.1908 59.5 24.2857V24.9688C59.5 33.0482 54.9828 40.5757 47.4968 44.9717L38.7059 50.113ZM35.5559 82.4075C34.0897 83.7428 32.0918 84.5 30 84.5C27.9082 84.5 25.9103 83.7428 24.4441 82.4075C22.9794 81.0736 22.1667 79.275 22.1667 77.4107C22.1667 75.5464 22.9794 73.7478 24.4441 72.414C25.9103 71.0786 27.9082 70.3214 30 70.3214C32.0918 70.3214 34.0897 71.0786 35.5559 72.414C37.0206 73.7478 37.8333 75.5464 37.8333 77.4107C37.8333 79.275 37.0206 81.0736 35.5559 82.4075Z"/>
</symbol>

</svg>
