<svg width="87" height="80" viewBox="0 0 87 80" fill="none" xmlns="http://www.w3.org/2000/svg">
<path d="M42.3992 6.08358C42.8333 5.61961 43.0271 5.04587 42.9861 4.49051C42.944 3.92976 42.6612 3.36862 42.1498 2.95494C41.631 2.53532 40.927 2.30638 40.1923 2.3536L42.3992 6.08358ZM42.3992 6.08358C41.9597 6.55318 41.3076 6.86903 40.5731 6.91668M42.3992 6.08358L40.5731 6.91668M40.5731 6.91668C33.7991 7.35331 27.2898 9.58906 21.8196 13.3732M40.5731 6.91668L21.8196 13.3732M21.8196 13.3732C16.3481 17.1584 12.1393 22.3393 9.71559 28.3149M21.8196 13.3732L9.71559 28.3149M9.71559 28.3149C7.29107 34.2925 6.76132 40.7992 8.19463 47.0554M9.71559 28.3149L8.19463 47.0554M8.19463 47.0554C9.62762 53.3102 12.9574 59.0308 17.7651 63.5461M8.19463 47.0554L17.7651 63.5461M17.7651 63.5461C22.5715 68.06 28.6546 71.1823 35.285 72.5604M17.7651 63.5461L35.285 72.5604M35.285 72.5604C41.915 73.9384 48.8311 73.5186 55.2166 71.3477M35.285 72.5604L55.2166 71.3477M55.2166 71.3477C61.6027 69.1766 67.205 65.3398 71.3455 60.2732M55.2166 71.3477L71.3455 60.2732M71.3455 60.2732C75.4873 55.205 77.9898 49.121 78.5348 42.7416M71.3455 60.2732L78.5348 42.7416M78.5348 42.7416C78.5826 42.1837 78.8694 41.6281 79.3896 41.2157M78.5348 42.7416C78.5348 42.7417 78.5347 42.7418 78.5347 42.7419L79.3896 41.2157M79.3896 41.2157C79.9145 40.7996 80.6226 40.5771 81.3577 40.6314M79.3896 41.2157L81.3577 40.6314M81.3577 40.6314C82.0923 40.6858 82.741 41.0078 83.175 41.481M81.3577 40.6314L83.175 41.481M83.175 41.481C83.604 41.9489 83.7918 42.5248 83.7442 43.0809M83.175 41.481L83.7442 43.0809M83.7442 43.0809C83.1292 50.2693 80.3068 57.1584 75.5916 62.927M83.7442 43.0809L75.5916 62.927M75.5916 62.927C70.8751 68.6973 64.4605 73.1055 57.0978 75.6081M75.5916 62.927L57.0978 75.6081M57.0978 75.6081C49.7345 78.1109 41.7477 78.597 34.0914 77.0055M57.0978 75.6081L34.0914 77.0055M34.0914 77.0055C26.4355 75.414 19.4494 71.816 13.9567 66.6575M34.0914 77.0055L13.9567 66.6575M13.9567 66.6575C8.46525 61.5003 4.69876 55.003 3.08158 47.9459M13.9567 66.6575L3.08158 47.9459M3.08158 47.9459C1.4647 40.8902 2.05906 33.5507 4.79937 26.7929M3.08158 47.9459L4.79937 26.7929M4.79937 26.7929C7.54045 20.0332 12.3202 14.1249 18.5927 9.78464M4.79937 26.7929L18.5927 9.78464M18.5927 9.78464C24.8662 5.44363 32.3625 2.8593 40.1919 2.35363L18.5927 9.78464ZM68.6661 2.68493L68.6672 2.68918L71.2979 12.4611L71.6096 13.6189L72.7776 13.8896L83.2817 16.324L83.2868 16.3252C83.4942 16.3727 83.6691 16.4674 83.799 16.5847C83.9279 16.7011 84.0057 16.8328 84.043 16.958C84.08 17.082 84.0808 17.2096 84.0455 17.3335L85.9691 17.8811L84.0455 17.3335C84.0099 17.4586 83.9342 17.5903 83.8075 17.7075L83.8035 17.7112L71.5124 29.1389C71.5121 29.1391 71.5118 29.1394 71.5115 29.1397C71.3877 29.2542 71.2211 29.3486 71.0222 29.3996C70.8226 29.4508 70.6096 29.4532 70.408 29.4061L70.4062 29.4057L61.537 27.3427L60.4409 27.0877L59.6541 27.8923C59.6424 27.9043 59.6305 27.9161 59.6185 27.928L44.9577 41.5418C44.4712 41.9533 43.8075 42.1958 43.0985 42.1842C42.3788 42.1724 41.7182 41.9005 41.2493 41.4645C40.7849 41.0327 40.548 40.4813 40.5377 39.9363C40.5275 39.4004 40.7359 38.8538 41.166 38.4139L55.8323 24.778L55.8423 24.7687L55.8521 24.7593C55.8584 24.7532 55.8648 24.7472 55.8712 24.7413C55.8801 24.7329 55.8892 24.7246 55.8983 24.7163L56.8049 23.8961L56.4883 22.7152L54.2756 14.4634L54.2746 14.4597C54.242 14.3391 54.2434 14.2151 54.2792 14.0943C54.3153 13.9726 54.3895 13.8449 54.5117 13.7308C54.5119 13.7306 54.5121 13.7304 54.5124 13.7302L66.8035 2.30251L66.8042 2.30191C66.931 2.18386 67.1031 2.08716 67.3088 2.03682C67.5147 1.98641 67.7334 1.98783 67.9381 2.04068C68.1425 2.09346 68.3124 2.19195 68.4367 2.31081L69.8187 0.865062L68.4367 2.31082C68.5601 2.42872 68.6328 2.56029 68.6661 2.68493ZM37.5541 26.8683L37.5527 26.8689L55.1404 44.4172L56.9853 45.1893C56.9854 45.1892 56.9854 45.1891 56.9855 45.189C57.098 44.9204 57.2703 44.6652 57.5003 44.4419C57.7308 44.2182 58.0141 44.0315 58.3378 43.8992C58.6617 43.7668 59.0152 43.6932 59.3773 43.6859C59.7394 43.6786 60.0969 43.7379 60.4281 43.8578C60.7592 43.9775 61.0528 44.1537 61.2954 44.3696C61.5376 44.5853 61.7231 44.8354 61.8488 45.1012C61.9743 45.3666 62.0398 45.6463 62.0463 45.9254C62.0528 46.2045 62.0004 46.4855 61.8881 46.7538L61.888 46.754C60.683 49.634 58.7182 52.2058 56.1562 54.2277C53.5934 56.2502 50.5171 57.6557 47.2023 58.3055C43.8873 58.9554 40.4497 58.8265 37.2039 57.9319C33.9584 57.0373 31.0177 55.4083 28.6423 53.205C26.2678 51.0024 24.5344 48.2971 23.5835 45.3406C22.633 42.3851 22.4903 39.2601 23.1665 36.2436C23.8428 33.2262 25.3202 30.3989 27.4804 28.0215C29.641 25.6435 32.417 23.7909 35.5651 22.6443C36.2382 22.4002 36.9937 22.4151 37.6527 22.6833C38.3092 22.9505 38.7793 23.4295 39.0072 23.9701C39.1201 24.2382 39.1731 24.519 39.1673 24.798C39.1615 25.0772 39.0967 25.357 38.9718 25.6225C38.8467 25.8885 38.6618 26.1389 38.4201 26.355C38.1781 26.5713 37.8849 26.748 37.5541 26.8683Z" />
</svg>
