<svg width="15" height="10" viewBox="0 0 15 10" fill="none" xmlns="http://www.w3.org/2000/svg">
<path d="M11.2066 7.85184L11.2067 7.85178L11.2003 7.84492C10.2256 6.7907 9.68314 6.50114 9.20304 6.50114C9.01541 6.50114 8.67207 6.5208 8.45203 6.82854C8.35753 6.96069 8.31698 7.1064 8.29646 7.22901C8.2757 7.35303 8.26977 7.49013 8.26977 7.63192V9.28925C8.26977 9.36032 8.26529 9.39953 8.26132 9.42007C8.24201 9.42956 8.20043 9.44612 8.12264 9.46159C8.01091 9.48382 7.84863 9.49918 7.61548 9.49997C6.69896 9.42755 5.80669 9.11333 5.01125 8.57812C4.20997 8.039 3.52881 7.29017 3.02802 6.38913L3.01415 6.36418L2.99753 6.34096C1.77943 4.63964 0.925302 2.6422 0.504658 0.503537C0.520157 0.5021 0.539378 0.501096 0.56282 0.501096H2.20378C2.26884 0.501096 2.29707 0.509394 2.30475 0.512157C2.30512 0.512289 2.30545 0.512403 2.30575 0.512506C2.30814 0.513333 2.30854 0.51347 2.31244 0.517451C2.32048 0.525654 2.34048 0.549558 2.36966 0.607949C2.39847 0.665603 2.42979 0.743574 2.4669 0.852124C2.87515 2.19816 3.42716 3.45895 3.95338 4.39155C4.21607 4.85709 4.48045 5.25536 4.72638 5.54445C4.84863 5.68814 4.97803 5.81883 5.11171 5.91771C5.23331 6.00766 5.42187 6.11922 5.65123 6.11922C5.73875 6.11922 5.87295 6.10971 6.01061 6.04125C6.16165 5.96613 6.26542 5.84649 6.3308 5.71402C6.4383 5.49622 6.45495 5.21035 6.45495 4.9222V2.21168V2.19757L6.45416 2.18349C6.41397 1.47161 6.21925 1.05244 6.01951 0.747631C5.97805 0.684372 5.9372 0.627279 5.90476 0.581937C5.90163 0.577567 5.89858 0.573305 5.89562 0.569158C5.87606 0.541787 5.86055 0.519855 5.84776 0.501096H8.26122C8.26631 0.542156 8.26977 0.597625 8.26977 0.671458V4.33019C8.26977 4.58418 8.31731 4.8177 8.4342 5.00544C8.55242 5.19535 8.76024 5.35598 9.02743 5.35598C9.26473 5.35598 9.46121 5.27264 9.64311 5.1357C9.80309 5.01527 9.9705 4.83877 10.1626 4.6236L10.1789 4.60535L10.1933 4.5856C11.0526 3.40956 11.7535 2.10096 12.2748 0.701415L12.2791 0.689915L12.2828 0.678219C12.3049 0.608759 12.3432 0.560232 12.3809 0.532493C12.4174 0.50573 12.4525 0.498089 12.4821 0.500394L12.5015 0.501903H12.5209H14.1626C14.1693 0.501903 14.1756 0.501985 14.1816 0.502135C14.1805 0.507311 14.1793 0.512678 14.1781 0.518238C13.5953 1.9773 12.8761 3.36169 12.0329 4.64812L12.0259 4.65882L12.0195 4.66987C12.0172 4.67384 12.0148 4.67788 12.0124 4.68199C11.9334 4.81685 11.8112 5.02557 11.7932 5.27425C11.7728 5.55551 11.884 5.79512 12.031 6.0095C12.1439 6.19342 12.3539 6.42387 12.5367 6.62458C12.5445 6.63315 12.5522 6.64166 12.5599 6.65011L12.5681 6.65908C12.7823 6.89436 13.0024 7.13617 13.1767 7.36747L13.1893 7.38413L13.2032 7.39968C13.7213 7.97962 14.1546 8.65082 14.4855 9.38811C14.4963 9.43444 14.4996 9.46782 14.5 9.48992C14.4784 9.49467 14.4451 9.49919 14.3973 9.49919H12.7549C12.6853 9.49919 12.6458 9.48604 12.604 9.4613C12.5488 9.42855 12.4733 9.3649 12.3528 9.229C12.2559 9.11962 12.15 8.98739 12.014 8.81748C11.9799 8.77484 11.9439 8.72982 11.9056 8.68219C11.7194 8.45045 11.493 8.1734 11.2066 7.85184ZM5.72104 0.402391L5.74223 0.423505L5.72104 0.402391Z" stroke="#5DE4DB"/>
</svg>
