<svg width="86" height="131" viewBox="0 0 86 131" fill="none" xmlns="http://www.w3.org/2000/svg">
<path fill-rule="evenodd" clip-rule="evenodd" d="M84.3848 1.53322C85.359 2.51412 85.9063 3.84433 85.9063 5.23132C85.9063 6.61831 85.359 7.94852 84.3848 8.92941L45.4344 48.1352C44.9197 48.6534 44.3086 49.0645 43.636 49.345C42.9634 49.6254 42.2425 49.7698 41.5144 49.7698C40.7864 49.7698 40.0655 49.6254 39.3929 49.345C38.7203 49.0645 38.1092 48.6534 37.5944 48.1352L18.2422 28.6596C17.7459 28.1771 17.35 27.5999 17.0777 26.9617C16.8053 26.3236 16.662 25.6372 16.656 24.9427C16.65 24.2481 16.7814 23.5594 17.0427 22.9165C17.304 22.2737 17.6899 21.6897 18.1778 21.1985C18.6657 20.7074 19.246 20.319 19.8846 20.056C20.5232 19.793 21.2075 19.6607 21.8975 19.6667C22.5875 19.6727 23.2694 19.817 23.9035 20.0912C24.5375 20.3653 25.1109 20.7638 25.5903 21.2634L41.5127 37.2902L77.0333 1.53322C77.5159 1.04715 78.089 0.66156 78.7197 0.398483C79.3504 0.135407 80.0264 0 80.7091 0C81.3918 0 82.0678 0.135407 82.6985 0.398483C83.3292 0.66156 83.9022 1.04715 84.3848 1.53322Z" fill="#5DE4DB"/>
<path d="M64.906 78.522C64.906 78.425 64.9051 78.3271 64.9035 78.2281C66.1337 78.4681 67.3738 78.5891 68.6222 78.5891C70.6282 78.5891 72.6289 78.2204 74.6152 77.504C76.4615 76.8381 78.0251 76.1578 79.2729 75.4545C79.8184 75.147 80.2183 74.9341 80.4879 74.8031C80.4947 74.7998 80.5013 74.7966 80.5078 74.7934C81.065 74.9006 81.8053 75.4083 82.4984 77.3942C83.3081 79.7144 83.7711 83.4087 83.7711 88.636C83.7711 90.4321 83.1687 91.5628 82.0931 92.3458C80.8273 93.2672 79.2057 93.7833 77.1073 93.7833H72.0321C69.4219 90.9276 66.2529 89.1231 62.5805 88.3922C64.126 85.3209 64.906 82.0238 64.906 78.522ZM20.8944 78.2281C20.8928 78.3271 20.892 78.425 20.892 78.522C20.892 82.0238 21.6719 85.3209 23.2175 88.3922C19.545 89.1231 16.376 90.9276 13.7658 93.7833H8.69059C6.59223 93.7833 4.97059 93.2672 3.70479 92.3458C2.62919 91.5628 2.02686 90.4321 2.02686 88.636C2.02686 83.4087 2.48983 79.7144 3.29958 77.3942C3.99262 75.4083 4.73288 74.9006 5.29012 74.7934C5.2966 74.7966 5.30324 74.7998 5.31003 74.8031C5.5796 74.9341 5.97957 75.147 6.52507 75.4545C7.77286 76.1578 9.33645 76.8381 11.1828 77.504C13.1691 78.2204 15.1697 78.5891 17.1757 78.5891C18.4241 78.5891 19.6642 78.4681 20.8944 78.2281ZM5.0714 74.6951C5.07147 74.6951 5.07225 74.6954 5.07377 74.6959C5.07211 74.6954 5.07131 74.695 5.0714 74.6951ZM72.3385 118.663C72.3385 121.829 71.3987 124.105 69.6947 125.738C67.9649 127.395 65.6094 128.306 62.4147 128.306H23.3832C20.1885 128.306 17.833 127.395 16.1033 125.738C14.3992 124.105 13.4594 121.829 13.4594 118.663C13.4594 117.119 13.5101 115.614 13.611 114.148C13.7095 112.718 13.9078 111.157 14.2099 109.462C14.5091 107.784 14.8838 106.245 15.3304 104.84C15.7634 103.478 16.3473 102.143 17.0862 100.835C17.807 99.5584 18.6153 98.504 19.5012 97.6506C20.3357 96.8466 21.3811 96.178 22.6724 95.6632C23.8484 95.1945 25.1714 94.9344 26.6628 94.9085C26.6788 94.9162 26.6964 94.9249 26.7155 94.9345C26.9385 95.0467 27.2725 95.2421 27.7348 95.5453L28.8316 93.8728L27.7348 95.5453C28.7122 96.1862 29.7945 96.9026 30.982 97.6945C32.3791 98.6261 34.1587 99.4141 36.2553 100.091C38.4416 100.797 40.6584 101.155 42.899 101.155C45.1395 101.155 47.3563 100.797 49.5426 100.091C51.6392 99.4141 53.4188 98.6261 54.8159 97.6944C56.0034 96.9026 57.0858 96.1862 58.0631 95.5453C58.5254 95.2421 58.8594 95.0467 59.0824 94.9345C59.1016 94.9249 59.1191 94.9162 59.1352 94.9085C60.6265 94.9344 61.9496 95.1945 63.1255 95.6632C64.4168 96.178 65.4622 96.8466 66.2968 97.6506C67.1826 98.504 67.991 99.5584 68.7117 100.835C69.4506 102.143 70.0345 103.478 70.4675 104.84C70.9142 106.245 71.2888 107.784 71.5881 109.462C71.8902 111.157 72.0884 112.718 72.1869 114.148C72.2878 115.614 72.3385 117.119 72.3385 118.663ZM26.6083 61.2607C26.6083 63.9106 25.6996 66.1155 23.8401 67.9873C21.9809 69.8586 19.7965 70.7682 17.1757 70.7682C14.5549 70.7682 12.3705 69.8586 10.5113 67.9873C8.65178 66.1155 7.74314 63.9106 7.74314 61.2607C7.74314 58.6107 8.65178 56.4059 10.5113 54.5341C12.3705 52.6628 14.5549 51.7532 17.1757 51.7532C19.7965 51.7532 21.9809 52.6628 23.8401 54.5341C25.6996 56.4059 26.6083 58.6107 26.6083 61.2607ZM58.0478 78.522C58.0478 82.7602 56.5809 86.3211 53.6049 89.3167C50.6293 92.3118 47.0977 93.7833 42.899 93.7833C38.7002 93.7833 35.1686 92.3118 32.193 89.3167C29.217 86.3211 27.7501 82.7602 27.7501 78.522C27.7501 74.2837 29.217 70.7228 32.193 67.7273C35.1686 64.7322 38.7002 63.2607 42.899 63.2607C47.0977 63.2607 50.6293 64.7322 53.6049 67.7273C56.5809 70.7228 58.0478 74.2837 58.0478 78.522ZM78.0548 61.2607C78.0548 63.9106 77.1461 66.1155 75.2866 67.9873C73.4275 69.8586 71.2431 70.7682 68.6222 70.7682C66.0014 70.7682 63.817 69.8586 61.9579 67.9873C60.0983 66.1155 59.1897 63.9106 59.1897 61.2607C59.1897 58.6107 60.0983 56.4059 61.9579 54.5341C63.817 52.6628 66.0014 51.7532 68.6222 51.7532C71.2431 51.7532 73.4275 52.6628 75.2866 54.5341C77.1461 56.4059 78.0548 58.6107 78.0548 61.2607Z" stroke="url(#paint0_linear_2253_93)" stroke-width="4"/>
<defs>
<linearGradient id="paint0_linear_2253_93" x1="42.899" y1="49.7532" x2="42.899" y2="130.306" gradientUnits="userSpaceOnUse">
<stop stop-color="#60EBE0"/>
<stop offset="1" stop-color="#122451"/>
</linearGradient>
</defs>
</svg>
