<svg width="87" height="131" viewBox="0 0 87 131" fill="none" xmlns="http://www.w3.org/2000/svg">
<path d="M65.9528 82.5875C65.9528 82.546 65.9527 82.5043 65.9523 82.4624C67.1859 82.6865 68.4282 82.7993 69.6782 82.7993C71.6673 82.7993 73.6547 82.4617 75.6331 81.8026C77.4785 81.1878 79.04 80.5602 80.2856 79.9117C80.8322 79.6271 81.2341 79.4294 81.5061 79.3074C81.5274 79.2978 81.5472 79.289 81.5656 79.2809C81.8835 79.3238 82.1506 79.4518 82.4111 79.6816C82.7797 80.0069 83.2047 80.6041 83.5966 81.6413C84.3907 83.7431 84.8541 87.12 84.8541 91.9445C84.8541 93.5001 84.3034 94.4934 83.2333 95.2129C81.9585 96.0701 80.3108 96.5569 78.1767 96.5569H73.0451C70.4514 93.9321 67.3265 92.2785 63.729 91.5915C65.2032 88.7927 65.9528 85.7845 65.9528 82.5875ZM18.1503 82.7993C19.4003 82.7993 20.6426 82.6865 21.8761 82.4624C21.8758 82.5043 21.8756 82.546 21.8756 82.5875C21.8756 85.7845 22.6253 88.7927 24.0994 91.5915C20.502 92.2785 17.3771 93.9321 14.7833 96.5569H9.6518C7.51763 96.5569 5.87 96.0701 4.59518 95.2129C3.52507 94.4934 2.97437 93.5001 2.97437 91.9445C2.97437 87.12 3.43779 83.7431 4.23189 81.6413C4.62374 80.6041 5.04875 80.0069 5.41738 79.6816C5.6779 79.4518 5.94496 79.3238 6.26283 79.2809C6.28124 79.289 6.30109 79.2978 6.3224 79.3074C6.59434 79.4294 6.99626 79.6271 7.54285 79.9117C8.78852 80.5602 10.35 81.1878 12.1954 81.8026C14.1737 82.4617 16.1612 82.7993 18.1503 82.7993ZM76.4123 60.5557L77.7741 59.0909L76.4123 60.5557C78.2597 62.2733 79.1288 64.2591 79.1288 66.6182C79.1288 68.9772 78.2597 70.963 76.4123 72.6807C74.56 74.4029 72.3533 75.2644 69.6782 75.2644C67.003 75.2644 64.7964 74.4029 62.944 72.6807C61.0966 70.963 60.2275 68.9772 60.2275 66.6182C60.2275 64.2591 61.0966 62.2733 62.944 60.5557C64.7964 58.8335 67.003 57.9719 69.6782 57.9719C72.3533 57.9719 74.56 58.8335 76.4123 60.5557ZM32.0409 100.488L32.979 98.9655L32.0409 100.488C33.4361 101.348 35.2116 102.074 37.304 102.698C39.4822 103.348 41.6875 103.676 43.9142 103.676C46.141 103.676 48.3463 103.348 50.5245 102.698C52.6169 102.074 54.3924 101.348 55.7876 100.488C56.977 99.7558 58.0611 99.0931 59.0401 98.5001C59.5031 98.2196 59.8394 98.0377 60.0659 97.9324C60.0964 97.9182 60.1227 97.9065 60.1451 97.8968C61.6701 97.918 63.0232 98.1619 64.2234 98.6038C65.5289 99.0845 66.5782 99.7065 67.4093 100.446C68.2913 101.231 69.0926 102.197 69.8057 103.364C70.5392 104.563 71.1168 105.784 71.5443 107.026L73.4354 106.375L71.5443 107.026C71.9873 108.313 72.3595 109.725 72.657 111.266L74.6207 110.887L72.657 111.266C72.9579 112.825 73.1548 114.258 73.2525 115.569C73.353 116.917 73.4035 118.302 73.4035 119.725C73.4035 122.57 72.4965 124.617 70.8126 126.108C69.0839 127.638 66.703 128.496 63.4608 128.496H24.3676C21.1255 128.496 18.7446 127.638 17.0158 126.108C15.332 124.617 14.425 122.57 14.425 119.725C14.425 118.302 14.4755 116.917 14.576 115.569C14.6737 114.258 14.8706 112.825 15.1715 111.266C15.469 109.725 15.8412 108.313 16.2842 107.026C16.7117 105.784 17.2893 104.563 18.0228 103.364C18.7359 102.197 19.5372 101.231 20.4192 100.446C21.2502 99.7065 22.2995 99.0845 23.605 98.6038C24.8053 98.1619 26.1584 97.918 27.6834 97.8968C27.7057 97.9065 27.7321 97.9182 27.7626 97.9324C27.9891 98.0377 28.3254 98.2196 28.7884 98.5001C29.7674 99.0931 30.8515 99.7558 32.0409 100.488ZM60.2442 97.8575C60.2519 97.8551 60.2501 97.8561 60.2398 97.859C60.2418 97.8583 60.2432 97.8578 60.2442 97.8575ZM27.5843 97.8575C27.5853 97.8578 27.5868 97.8583 27.5887 97.859C27.5783 97.8561 27.5765 97.8551 27.5843 97.8575ZM27.6009 66.6182C27.6009 68.9772 26.7319 70.963 24.8844 72.6807C23.0321 74.4029 20.8255 75.2644 18.1503 75.2644C15.4751 75.2644 13.2685 74.4029 11.4162 72.6807C9.56874 70.963 8.69968 68.9772 8.69968 66.6182C8.69968 64.2591 9.56874 62.2733 11.4162 60.5557C13.2685 58.8335 15.4751 57.9719 18.1503 57.9719C20.8255 57.9719 23.0321 58.8335 24.8844 60.5557C26.7319 62.2733 27.6009 64.2591 27.6009 66.6182ZM59.0902 82.5875C59.0902 86.4159 57.662 89.6563 54.6963 92.4136C51.7258 95.1755 48.1698 96.5569 43.9142 96.5569C39.6586 96.5569 36.1027 95.1755 33.1321 92.4136C30.1665 89.6563 28.7383 86.4159 28.7383 82.5875C28.7383 78.7591 30.1665 75.5187 33.1321 72.7614C36.1027 69.9995 39.6586 68.6182 43.9142 68.6182C48.1698 68.6182 51.7258 69.9995 54.6963 72.7614C57.662 75.5187 59.0902 78.7591 59.0902 82.5875Z" stroke="url(#paint0_linear_2253_94)" stroke-width="4"/>
<path d="M33.3601 15.6237C33.3601 11.315 37.1465 7.81185 41.8035 7.81185H46.0252C50.6823 7.81185 54.4686 11.315 54.4686 15.6237V16.0631C54.4686 18.724 53.0042 21.2018 50.59 22.6299L45.0226 25.9378C43.3879 26.9102 42.0433 28.2467 41.1121 29.8249C40.1809 31.403 39.6928 33.1722 39.6927 34.9702V35.1533C39.6927 37.3138 41.5793 39.0592 43.9144 39.0592C46.2495 39.0592 48.1361 37.3138 48.1361 35.1533V34.9824C48.1361 33.9815 48.6902 33.0539 49.5873 32.5168L55.1547 29.209C59.9832 26.3284 62.912 21.3849 62.912 16.0631V15.6237C62.912 6.99404 55.3526 0 46.0252 0H41.8035C32.4762 0 24.9167 6.99404 24.9167 15.6237C24.9167 17.7842 26.8033 19.5296 29.1384 19.5296C31.4736 19.5296 33.3601 17.7842 33.3601 15.6237ZM43.9144 54.6829C45.314 54.6829 46.6562 54.1685 47.6459 53.2529C48.6355 52.3373 49.1915 51.0954 49.1915 49.8005C49.1915 48.5056 48.6355 47.2638 47.6459 46.3481C46.6562 45.4325 45.314 44.9181 43.9144 44.9181C42.5148 44.9181 41.1726 45.4325 40.1829 46.3481C39.1932 47.2638 38.6373 48.5056 38.6373 49.8005C38.6373 51.0954 39.1932 52.3373 40.1829 53.2529C41.1726 54.1685 42.5148 54.6829 43.9144 54.6829Z" fill="#5DE4DB"/>
<defs>
<linearGradient id="paint0_linear_2253_94" x1="43.9142" y1="55.9719" x2="43.9142" y2="130.496" gradientUnits="userSpaceOnUse">
<stop stop-color="#60EBE0"/>
<stop offset="1" stop-color="#122451"/>
</linearGradient>
</defs>
</svg>
